ffmpeg started on 2025-07-07 at 18:33:08
Report written to "D:\Convert\FFMetrics\reports\ssim_report-6.txt"
Log level: 32
Command line:
ffmpeg -hide_banner -nostdin -i "G:\\\xc0\xed\xe8\xec\xe5\\[\xd2\xee\xef-3]\\Bleach\\\xd2\xfb\xf1\xff\xf7\xe5\xeb\xe5\xf2\xed\xff\xff \xea\xf0\xee\xe2\xe0\xe2\xe0\xff \xe2\xee\xe9\xed\xe0\\\xd2\xc2-1\\1\\Bleach_-_Thousand_Year_Blood_War_[01]_[BDRip_1080p_AV1]_HEVC.mkv" -i "G:\\\xc0\xed\xe8\xec\xe5\\[\xd2\xee\xef-3]\\Bleach\\\xd2\xfb\xf1\xff\xf7\xe5\xeb\xe5\xf2\xed\xff\xff \xea\xf0\xee\xe2\xe0\xe2\xe0\xff \xe2\xee\xe9\xed\xe0\\\xd2\xc2-1\\1\\Bleach_-_Thousand_Year_Blood_War_[01]_[BDRip_1080p_AV1].mkv" -lavfi "[0:v]settb=AVTB,setpts=PTS-STARTPTS,format=pix_fmts=yuv420p10,fps=24000/1001,scale=1920:1080:flags=bicubic[main];[1:v]settb=AVTB,setpts=PTS-STARTPTS,format=pix_fmts=yuv420p10,fps=24000/1001,scale=1920:1080:flags=bicubic[ref];[main][ref]ssim=eof_action=endall:stats_file='D\\:/Convert/FFMetrics/logs/ssim_logfile-6.txt'" -f null -
Input #0, matroska,webm, from 'G:\Аниме\[Топ-3]\Bleach\Тысячелетняя кровавая война\ТВ-1\1\Bleach_-_Thousand_Year_Blood_War_[01]_[BDRip_1080p_AV1]_HEVC.mkv':
  Metadata:
    ENCODER         : Lavf61.7.100
  Duration: 00:00:20.03, start: -0.021000, bitrate: 1835 kb/s
  Chapters:
    Chapter #0:0: start 0.000000, end 20.000000
      Metadata:
        title           : Prologue
  Stream #0:0(jpn): Video: hevc (Main 10), yuv420p10le(tv, bt709, progressive), 1920x1080 [SAR 1:1 DAR 16:9], 23.81 fps, 23.81 tbr, 1k tbn (default) (forced)
      Metadata:
        title           : [Breeze]
        ENCODER         : Lavc61.19.100 libx265
        BPS             : 1249634
        DURATION        : 00:00:20.034000000
        NUMBER_OF_FRAMES: 480
        NUMBER_OF_BYTES : 3129397
        _STATISTICS_WRITING_APP: mkvpropedit v66.0.0 ('Josie') 64-bit
        _STATISTICS_WRITING_DATE_UTC: 2025-07-07 15:22:46
        _STATISTICS_TAGS: BPS DURATION NUMBER_OF_FRAMES NUMBER_OF_BYTES
  Stream #0:1(rus): Audio: aac (LC), 48000 Hz, stereo, fltp (default)
      Metadata:
        title           : [Amber]
        ENCODER         : Lavc61.19.100 aac
        BPS             : 189912
        DURATION        : 00:00:20.010000000
        NUMBER_OF_FRAMES: 939
        NUMBER_OF_BYTES : 475018
        _STATISTICS_WRITING_APP: mkvpropedit v66.0.0 ('Josie') 64-bit
        _STATISTICS_WRITING_DATE_UTC: 2025-07-07 15:22:46
        _STATISTICS_TAGS: BPS DURATION NUMBER_OF_FRAMES NUMBER_OF_BYTES
  Stream #0:2(rus): Audio: aac (LC), 48000 Hz, stereo, fltp
      Metadata:
        title           : [AniDub]
        ENCODER         : Lavc61.19.100 aac
        BPS             : 193291
        DURATION        : 00:00:20.010000000
        NUMBER_OF_FRAMES: 939
        NUMBER_OF_BYTES : 483470
        _STATISTICS_WRITING_APP: mkvpropedit v66.0.0 ('Josie') 64-bit
        _STATISTICS_WRITING_DATE_UTC: 2025-07-07 15:22:46
        _STATISTICS_TAGS: BPS DURATION NUMBER_OF_FRAMES NUMBER_OF_BYTES
  Stream #0:3(rus): Audio: aac (LC), 48000 Hz, stereo, fltp
      Metadata:
        title           : [Anilibria]
        ENCODER         : Lavc61.19.100 aac
        BPS             : 190615
        DURATION        : 00:00:20.010000000
        NUMBER_OF_FRAMES: 939
        NUMBER_OF_BYTES : 476777
        _STATISTICS_WRITING_APP: mkvpropedit v66.0.0 ('Josie') 64-bit
        _STATISTICS_WRITING_DATE_UTC: 2025-07-07 15:22:46
        _STATISTICS_TAGS: BPS DURATION NUMBER_OF_FRAMES NUMBER_OF_BYTES
  Stream #0:4(rus): Subtitle: ass (ssa) (default) (forced)
      Metadata:
        title           : RikuSempai [Надписи]
        BPS             : 0
        DURATION        : 00:00:00.000000000
        NUMBER_OF_FRAMES: 0
        NUMBER_OF_BYTES : 0
        _STATISTICS_WRITING_APP: mkvpropedit v66.0.0 ('Josie') 64-bit
        _STATISTICS_WRITING_DATE_UTC: 2025-07-07 15:22:46
        _STATISTICS_TAGS: BPS DURATION NUMBER_OF_FRAMES NUMBER_OF_BYTES
[matroska,webm @ 00000202e800e740] Could not find codec parameters for stream 5 (Attachment: none): unknown codec
Consider increasing the value for the 'analyzeduration' (0) and 'probesize' (5000000) options
[matroska,webm @ 00000202e800e740] Could not find codec parameters for stream 6 (Attachment: none): unknown codec
Consider increasing the value for the 'analyzeduration' (0) and 'probesize' (5000000) options
[matroska,webm @ 00000202e800e740] Could not find codec parameters for stream 7 (Attachment: none): unknown codec
Consider increasing the value for the 'analyzeduration' (0) and 'probesize' (5000000) options
[matroska,webm @ 00000202e800e740] Could not find codec parameters for stream 8 (Attachment: none): unknown codec
Consider increasing the value for the 'analyzeduration' (0) and 'probesize' (5000000) options
[matroska,webm @ 00000202e800e740] Could not find codec parameters for stream 9 (Attachment: none): unknown codec
Consider increasing the value for the 'analyzeduration' (0) and 'probesize' (5000000) options
[matroska,webm @ 00000202e800e740] Could not find codec parameters for stream 10 (Attachment: none): unknown codec
Consider increasing the value for the 'analyzeduration' (0) and 'probesize' (5000000) options
[matroska,webm @ 00000202e800e740] Could not find codec parameters for stream 11 (Attachment: none): unknown codec
Consider increasing the value for the 'analyzeduration' (0) and 'probesize' (5000000) options
[matroska,webm @ 00000202e800e740] Could not find codec parameters for stream 12 (Attachment: none): unknown codec
Consider increasing the value for the 'analyzeduration' (0) and 'probesize' (5000000) options
[matroska,webm @ 00000202e800e740] Could not find codec parameters for stream 13 (Attachment: none): unknown codec
Consider increasing the value for the 'analyzeduration' (0) and 'probesize' (5000000) options
[matroska,webm @ 00000202e800e740] Could not find codec parameters for stream 14 (Attachment: none): unknown codec
Consider increasing the value for the 'analyzeduration' (0) and 'probesize' (5000000) options
[matroska,webm @ 00000202e800e740] Could not find codec parameters for stream 15 (Attachment: none): unknown codec
Consider increasing the value for the 'analyzeduration' (0) and 'probesize' (5000000) options
[matroska,webm @ 00000202e800e740] Could not find codec parameters for stream 16 (Attachment: none): unknown codec
Consider increasing the value for the 'analyzeduration' (0) and 'probesize' (5000000) options
[matroska,webm @ 00000202e800e740] Could not find codec parameters for stream 17 (Attachment: none): unknown codec
Consider increasing the value for the 'analyzeduration' (0) and 'probesize' (5000000) options
[matroska,webm @ 00000202e800e740] Could not find codec parameters for stream 18 (Attachment: none): unknown codec
Consider increasing the value for the 'analyzeduration' (0) and 'probesize' (5000000) options
[matroska,webm @ 00000202e800e740] Could not find codec parameters for stream 19 (Attachment: none): unknown codec
Consider increasing the value for the 'analyzeduration' (0) and 'probesize' (5000000) options
[matroska,webm @ 00000202e800e740] Could not find codec parameters for stream 20 (Attachment: none): unknown codec
Consider increasing the value for the 'analyzeduration' (0) and 'probesize' (5000000) options
[matroska,webm @ 00000202e800e740] Could not find codec parameters for stream 21 (Attachment: none): unknown codec
Consider increasing the value for the 'analyzeduration' (0) and 'probesize' (5000000) options
[matroska,webm @ 00000202e800e740] Could not find codec parameters for stream 22 (Attachment: none): unknown codec
Consider increasing the value for the 'analyzeduration' (0) and 'probesize' (5000000) options
[matroska,webm @ 00000202e800e740] Could not find codec parameters for stream 23 (Attachment: none): unknown codec
Consider increasing the value for the 'analyzeduration' (0) and 'probesize' (5000000) options
[matroska,webm @ 00000202e800e740] Could not find codec parameters for stream 24 (Attachment: none): unknown codec
Consider increasing the value for the 'analyzeduration' (0) and 'probesize' (5000000) options
[matroska,webm @ 00000202e800e740] Could not find codec parameters for stream 25 (Attachment: none): unknown codec
Consider increasing the value for the 'analyzeduration' (0) and 'probesize' (5000000) options
[matroska,webm @ 00000202e800e740] Could not find codec parameters for stream 26 (Attachment: none): unknown codec
Consider increasing the value for the 'analyzeduration' (0) and 'probesize' (5000000) options
[matroska,webm @ 00000202e800e740] Could not find codec parameters for stream 27 (Attachment: none): unknown codec
Consider increasing the value for the 'analyzeduration' (0) and 'probesize' (5000000) options
[matroska,webm @ 00000202e800e740] Could not find codec parameters for stream 28 (Attachment: none): unknown codec
Consider increasing the value for the 'analyzeduration' (0) and 'probesize' (5000000) options
[matroska,webm @ 00000202e800e740] Could not find codec parameters for stream 29 (Attachment: none): unknown codec
Consider increasing the value for the 'analyzeduration' (0) and 'probesize' (5000000) options
[matroska,webm @ 00000202e800e740] Could not find codec parameters for stream 30 (Attachment: none): unknown codec
Consider increasing the value for the 'analyzeduration' (0) and 'probesize' (5000000) options
Input #1, matroska,webm, from 'G:\Аниме\[Топ-3]\Bleach\Тысячелетняя кровавая война\ТВ-1\1\Bleach_-_Thousand_Year_Blood_War_[01]_[BDRip_1080p_AV1].mkv':
  Metadata:
    encoder         : libebml v1.4.2 + libmatroska v1.6.4
    creation_time   : 2024-12-06T09:52:48.000000Z
  Duration: 00:23:51.98, start: 0.000000, bitrate: 5799 kb/s
  Chapters:
    Chapter #1:0: start 0.000000, end 79.999000
      Metadata:
        title           : Prologue
    Chapter #1:1: start 79.999000, end 516.975000
      Metadata:
        title           : Part A
    Chapter #1:2: start 516.975000, end 519.978000
      Metadata:
        title           : Eyecatch
    Chapter #1:3: start 519.978000, end 1193.901000
      Metadata:
        title           : Part B
    Chapter #1:4: start 1193.901000, end 1414.914000
      Metadata:
        title           : ED
    Chapter #1:5: start 1414.914000, end 1430.950000
      Metadata:
        title           : Poem
    Chapter #1:6: start 1430.950000, end 1431.978000
      Metadata:
        title           : End
  Stream #1:0(jpn): Video: av1 (libdav1d) (Main), yuv420p10le(tv, bt709), 1920x1080, SAR 1:1 DAR 16:9, 23.81 fps, 23.81 tbr, 1k tbn (default) (forced)
      Metadata:
        title           : [Breeze]
        BPS             : 5194374
        DURATION        : 00:23:51.931000000
        NUMBER_OF_FRAMES: 34332
        NUMBER_OF_BYTES : 929748176
        _STATISTICS_WRITING_APP: mkvmerge v66.0.0 ('Josie') 64-bit
        _STATISTICS_WRITING_DATE_UTC: 2024-12-06 09:52:48
        _STATISTICS_TAGS: BPS DURATION NUMBER_OF_FRAMES NUMBER_OF_BYTES
  Stream #1:1(rus): Audio: aac (LC), 48000 Hz, stereo, fltp (default)
      Metadata:
        title           : [Amber]
        BPS             : 189463
        DURATION        : 00:23:51.978000000
        NUMBER_OF_FRAMES: 67124
        NUMBER_OF_BYTES : 33913379
        _STATISTICS_WRITING_APP: mkvmerge v66.0.0 ('Josie') 64-bit
        _STATISTICS_WRITING_DATE_UTC: 2024-12-06 09:52:48
        _STATISTICS_TAGS: BPS DURATION NUMBER_OF_FRAMES NUMBER_OF_BYTES
  Stream #1:2(rus): Audio: aac (LC), 48000 Hz, stereo, fltp
      Metadata:
        title           : [AniDub]
        BPS             : 192088
        DURATION        : 00:23:51.957000000
        NUMBER_OF_FRAMES: 67123
        NUMBER_OF_BYTES : 34382735
        _STATISTICS_WRITING_APP: mkvmerge v66.0.0 ('Josie') 64-bit
        _STATISTICS_WRITING_DATE_UTC: 2024-12-06 09:52:48
        _STATISTICS_TAGS: BPS DURATION NUMBER_OF_FRAMES NUMBER_OF_BYTES
  Stream #1:3(rus): Audio: aac (LC), 48000 Hz, stereo, fltp
      Metadata:
        title           : [Anilibria]
        BPS             : 189463
        DURATION        : 00:23:51.978000000
        NUMBER_OF_FRAMES: 67124
        NUMBER_OF_BYTES : 33913380
        _STATISTICS_WRITING_APP: mkvmerge v66.0.0 ('Josie') 64-bit
        _STATISTICS_WRITING_DATE_UTC: 2024-12-06 09:52:48
        _STATISTICS_TAGS: BPS DURATION NUMBER_OF_FRAMES NUMBER_OF_BYTES
  Stream #1:4(rus): Subtitle: ass (ssa) (default) (forced)
      Metadata:
        title           : RikuSempai [Надписи]
        BPS             : 60
        DURATION        : 00:23:19.540000000
        NUMBER_OF_FRAMES: 88
        NUMBER_OF_BYTES : 10583
        _STATISTICS_WRITING_APP: mkvmerge v66.0.0 ('Josie') 64-bit
        _STATISTICS_WRITING_DATE_UTC: 2024-12-06 09:52:48
        _STATISTICS_TAGS: BPS DURATION NUMBER_OF_FRAMES NUMBER_OF_BYTES
  Stream #1:5: Attachment: none
      Metadata:
        filename        : 9143.otf
        mimetype        : font/otf
  Stream #1:6: Attachment: none
      Metadata:
        filename        : 10950.otf
        mimetype        : font/otf
  Stream #1:7: Attachment: none
      Metadata:
        filename        : 13891.ttf
        mimetype        : font/ttf
  Stream #1:8: Attachment: none
      Metadata:
        filename        : agavalanchec_bold.otf
        mimetype        : font/otf
  Stream #1:9: Attachment: none
      Metadata:
        filename        : Bewlay Br1.otf
        mimetype        : font/otf
  Stream #1:10: Attachment: none
      Metadata:
        filename        : Domkrat Bold.ttf
        mimetype        : font/ttf
  Stream #1:11: Attachment: none
      Metadata:
        filename        : GARA.TTF
        mimetype        : font/ttf
  Stream #1:12: Attachment: none
      Metadata:
        filename        : Globus.ttf
        mimetype        : font/ttf
  Stream #1:13: Attachment: none
      Metadata:
        filename        : Staccato 555 TL.ttf
        mimetype        : font/ttf
  Stream #1:14: Attachment: none
      Metadata:
        filename        : verdana.ttf
        mimetype        : font/ttf
  Stream #1:15: Attachment: none
      Metadata:
        filename        : AvantGarde-Bold.otf
        mimetype        : font/otf
  Stream #1:16: Attachment: none
      Metadata:
        filename        : blogger-sans.bold.otf
        mimetype        : font/otf
  Stream #1:17: Attachment: none
      Metadata:
        filename        : blogger-sans.regular.otf
        mimetype        : font/otf
  Stream #1:18: Attachment: none
      Metadata:
        filename        : cambria.ttf
        mimetype        : font/ttf
  Stream #1:19: Attachment: none
      Metadata:
        filename        : cambriab.ttf
        mimetype        : font/ttf
  Stream #1:20: Attachment: none
      Metadata:
        filename        : CfXerographyDemoRegular-ra8y.ttf
        mimetype        : font/ttf
  Stream #1:21: Attachment: none
      Metadata:
        filename        : Dry_Brush.ttf
        mimetype        : font/ttf
  Stream #1:22: Attachment: none
      Metadata:
        filename        : Gandhi Sans Bold Italic.otf
        mimetype        : font/otf
  Stream #1:23: Attachment: none
      Metadata:
        filename        : Gandhi Sans Bold.otf
        mimetype        : font/otf
  Stream #1:24: Attachment: none
      Metadata:
        filename        : grain.ttf
        mimetype        : font/ttf
  Stream #1:25: Attachment: none
      Metadata:
        filename        : KirimomiSwaIt.otf
        mimetype        : font/otf
  Stream #1:26: Attachment: none
      Metadata:
        filename        : One Slice.otf
        mimetype        : font/otf
  Stream #1:27: Attachment: none
      Metadata:
        filename        : steelfish eb.ttf
        mimetype        : font/ttf
  Stream #1:28: Attachment: none
      Metadata:
        filename        : TR-FOT-MATISSEPRO-B.ttf
        mimetype        : font/ttf
  Stream #1:29: Attachment: none
      Metadata:
        filename        : TSUKUMINPRO-B-Str.otf
        mimetype        : font/otf
  Stream #1:30: Attachment: none
      Metadata:
        filename        : WorldwideBoldCondensed.ttf
        mimetype        : font/ttf
Stream mapping:
  Stream #0:0 (hevc) -> settb:default
  Stream #1:0 (libdav1d) -> settb:default
  ssim:default -> Stream #0:0 (wrapped_avframe)
  Stream #0:1 -> #0:1 (aac (native) -> pcm_s16le (native))
Output #0, null, to 'pipe:':
  Metadata:
    encoder         : Lavf61.7.100
  Chapters:
    Chapter #0:0: start 0.021000, end 20.021000
      Metadata:
        title           : Prologue
  Stream #0:0: Video: wrapped_avframe, yuv420p10le(tv, bt709, progressive), 1920x1080 [SAR 1:1 DAR 16:9], q=2-31, 200 kb/s, 23.98 fps, 23.98 tbn
      Metadata:
        encoder         : Lavc61.19.100 wrapped_avframe
  Stream #0:1(rus): Audio: pcm_s16le, 48000 Hz, stereo, s16, 1536 kb/s (default)
      Metadata:
        title           : [Amber]
        _STATISTICS_TAGS: BPS DURATION NUMBER_OF_FRAMES NUMBER_OF_BYTES
        BPS             : 189912
        DURATION        : 00:00:20.010000000
        NUMBER_OF_FRAMES: 939
        NUMBER_OF_BYTES : 475018
        _STATISTICS_WRITING_APP: mkvpropedit v66.0.0 ('Josie') 64-bit
        _STATISTICS_WRITING_DATE_UTC: 2025-07-07 15:22:46
        encoder         : Lavc61.19.100 pcm_s16le
frame=  180 fps=0.0 q=-0.0 size=N/A time=00:00:07.50 bitrate=N/A speed=14.5x    frame=  362 fps=352 q=-0.0 size=N/A time=00:00:15.09 bitrate=N/A speed=14.7x    frame=  466 fps=303 q=-0.0 size=N/A time=00:00:19.43 bitrate=N/A speed=12.6x    [Parsed_ssim_10 @ 00000202e9382600] SSIM Y:0.985323 (18.333721) U:0.997209 (25.542800) V:0.997479 (25.985065) All:0.989330 (19.718491)
[out#0/null @ 00000202e960fe00] video:206KiB audio:3756KiB subtitle:0KiB other streams:0KiB global headers:0KiB muxing overhead: unknown
frame=  480 fps=291 q=-0.0 Lsize=N/A time=00:00:20.02 bitrate=N/A speed=12.1x    
